<?xml version="1.0" encoding="UTF-8"?> <svg xmlns="http://www.w3.org/2000/svg" width="90" height="48" viewBox="0 0 90 48" fill="none"> <path d="M66.2498 0H90.0003L70.7173 48H47.0587L66.2498 0Z" fill="#F7EE80"></path> <path d="M10.459 3.79277L8.64501 8.39097H12.4147L14.257 3.79277H10.459ZM12.6981 12.0019H7.22768L0 30H3.85479L5.30028 26.3891H11.2526L12.4714 23.3706H6.49075L9.94871 14.7383L16.0428 30H19.8976L12.6981 12.0019ZM39.7669 26.3891H28.9395V12.0019H25.283V30H39.7669V26.3891ZM45.3224 30H48.6953V12.0019H45.3224V30ZM66.9491 12.0019H61.4503L54.251 30H58.1058L59.5513 26.3891H65.5036L66.7224 23.3706H60.7417L64.1997 14.7383L70.2938 30H74.1486L66.9491 12.0019Z" fill="#717171"></path> <path d="M1.68683 37.0736L0 35.2986H0.752168L2.17567 36.7902V35.2986H2.76657V36.7902L4.19026 35.2986H4.94224L3.25541 37.0736L4.94224 38.8486H4.16866L2.76657 37.3783V38.8486H2.17567V37.3783L0.773581 38.8486H0L1.68683 37.0736Z" fill="#717171"></path> <path d="M6.79811 35.2974V37.9814L8.72666 35.2974H9.34456V38.8477H8.75347V36.1635L6.83032 38.8477H6.20721V35.2974H6.79811Z" fill="#717171"></path> <path d="M13.9556 35.2984V38.8486H13.3647V35.8385H11.9732V36.9611C11.9732 37.1108 11.968 37.2606 11.9626 37.4104C11.9518 37.5599 11.9358 37.7097 11.9142 37.8487C11.8928 37.9877 11.8551 38.1213 11.8067 38.239C11.7585 38.3619 11.6939 38.4689 11.6186 38.5599C11.5382 38.6507 11.4415 38.7202 11.3233 38.7738C11.205 38.8271 11.0654 38.8486 10.9043 38.8486H10.6249V38.3085H10.8022C10.9419 38.3085 11.0547 38.2711 11.1298 38.1908C11.205 38.1108 11.2643 38.009 11.3019 37.8808C11.3393 37.7579 11.3609 37.6189 11.3717 37.4691C11.3769 37.3194 11.3823 37.175 11.3823 37.0306V35.2984H13.9556Z" fill="#717171"></path> <path d="M17.241 35.2297C17.5096 35.2297 17.7513 35.2779 17.977 35.374C18.2027 35.4702 18.396 35.6039 18.5625 35.7698C18.7237 35.9355 18.8526 36.1278 18.9441 36.3525C19.0353 36.5769 19.0837 36.8177 19.0837 37.0742C19.0837 37.3309 19.0353 37.5715 18.9441 37.7961C18.8526 38.0206 18.7237 38.2185 18.5625 38.3842C18.396 38.5499 18.2027 38.6782 17.977 38.7746C17.7513 38.8708 17.5096 38.9189 17.241 38.9189C16.9725 38.9189 16.7254 38.8708 16.4997 38.7746C16.2741 38.6782 16.0806 38.5499 15.9196 38.3842C15.7529 38.2185 15.624 38.0206 15.5328 37.7961C15.4413 37.5715 15.3983 37.3309 15.3983 37.0742C15.3983 36.8177 15.4413 36.5769 15.5328 36.3525C15.624 36.1278 15.7529 35.9355 15.9196 35.7698C16.0806 35.6039 16.2741 35.4702 16.4997 35.374C16.7254 35.2779 16.9725 35.2297 17.241 35.2297ZM17.241 38.3788C17.4183 38.3788 17.5848 38.3468 17.7407 38.2827C17.8909 38.2185 18.0254 38.1221 18.1381 38.0046C18.2455 37.8869 18.3316 37.7533 18.396 37.5928C18.4604 37.4325 18.4926 37.2614 18.4926 37.0742C18.4926 36.8924 18.4604 36.7213 18.396 36.561C18.3316 36.4007 18.2455 36.2617 18.1381 36.144C18.0254 36.0263 17.8909 35.9355 17.7407 35.8713C17.5848 35.807 17.4183 35.7698 17.241 35.7698C17.0583 35.7698 16.8918 35.807 16.7414 35.8713C16.5857 35.9355 16.4512 36.0263 16.344 36.144C16.2311 36.2617 16.1451 36.4007 16.0806 36.561C16.0162 36.7213 15.9894 36.8924 15.9894 37.0742C15.9894 37.2614 16.0162 37.4325 16.0806 37.5928C16.1451 37.7533 16.2311 37.8869 16.344 38.0046C16.4512 38.1221 16.5857 38.2185 16.7414 38.2827C16.8918 38.3468 17.0583 38.3788 17.241 38.3788Z" fill="#717171"></path> <path d="M21.126 35.2984V37.9823L23.0546 35.2984H23.6725V38.8486H23.0814V36.1645L21.1583 38.8486H20.5352V35.2984H21.126ZM21.5074 34.1168C21.5236 34.2558 21.5881 34.3733 21.7009 34.4589C21.8084 34.5446 21.9426 34.5872 22.1037 34.5872C22.2596 34.5872 22.3939 34.5446 22.5067 34.4589C22.6142 34.3733 22.6786 34.2558 22.7 34.1168H23.1835C23.1729 34.2558 23.1352 34.3841 23.0762 34.5018C23.017 34.6193 22.9417 34.7156 22.8451 34.8011C22.7484 34.8867 22.6356 34.9508 22.5067 34.999C22.3777 35.047 22.2434 35.0685 22.1037 35.0685C21.9587 35.0685 21.8244 35.047 21.6955 34.999C21.5665 34.9508 21.4592 34.8867 21.3624 34.8011C21.2657 34.7156 21.1851 34.6193 21.126 34.5018C21.067 34.3841 21.0348 34.2558 21.024 34.1168H21.5074Z" fill="#717171"></path> <path d="M30.2105 36.3688C30.2105 36.5185 30.1836 36.6522 30.1352 36.7804C30.087 36.9089 30.0118 37.0264 29.9149 37.1226C29.8183 37.219 29.6894 37.299 29.5389 37.3526C29.3833 37.4113 29.2006 37.438 28.9965 37.438H27.8683V38.8496H27.2772V35.2995H28.9965C29.2006 35.2995 29.3833 35.3316 29.5389 35.385C29.6894 35.4437 29.8183 35.524 29.9149 35.6202C30.0118 35.7166 30.087 35.8341 30.1352 35.9625C30.1836 36.0908 30.2105 36.2298 30.2105 36.3688ZM29.6196 36.3688C29.6196 36.1977 29.5605 36.0694 29.4477 35.9784C29.3294 35.8876 29.1737 35.8394 28.9749 35.8394H27.8683V36.8981H28.9749C29.1737 36.8981 29.3294 36.8553 29.4477 36.7645C29.5605 36.6735 29.6196 36.5398 29.6196 36.3688Z" fill="#717171"></path> <path d="M31.5014 38.8496H30.8943L32.4523 35.2993H33.0594L34.6172 38.8496H33.9887L33.6341 38.0476H31.856L31.5014 38.8496ZM32.7479 36.0266L32.0923 37.5075H33.3978L32.7479 36.0266Z" fill="#717171"></path> <path d="M36.4266 35.2984V37.9823L38.3552 35.2984H38.9731V38.8486H38.382V36.1645L36.4589 38.8486H35.8358V35.2984H36.4266ZM36.808 34.1168C36.8242 34.2558 36.8887 34.3733 37.0015 34.4589C37.109 34.5446 37.2432 34.5872 37.4043 34.5872C37.5602 34.5872 37.6945 34.5446 37.8073 34.4589C37.9148 34.3733 37.9792 34.2558 38.0006 34.1168H38.4841C38.4735 34.2558 38.4358 34.3841 38.3766 34.5018C38.3176 34.6193 38.2423 34.7156 38.1457 34.8011C38.049 34.8867 37.9362 34.9508 37.8073 34.999C37.6783 35.047 37.544 35.0685 37.4043 35.0685C37.2593 35.0685 37.125 35.047 36.9961 34.999C36.8671 34.9508 36.7598 34.8867 36.663 34.8011C36.5663 34.7156 36.4857 34.6193 36.4266 34.5018C36.3676 34.3841 36.3354 34.2558 36.3246 34.1168H36.808Z" fill="#717171"></path> <path d="M42.2566 35.2297C42.5251 35.2297 42.767 35.2779 42.9925 35.374C43.2183 35.4702 43.4116 35.6039 43.578 35.7698C43.7393 35.9355 43.8682 36.1278 43.9596 36.3525C44.0509 36.5769 44.0993 36.8177 44.0993 37.0742C44.0993 37.3309 44.0509 37.5715 43.9596 37.7961C43.8682 38.0206 43.7393 38.2185 43.578 38.3842C43.4116 38.5499 43.2183 38.6782 42.9925 38.7746C42.767 38.8708 42.5251 38.9189 42.2566 38.9189C41.988 38.9189 41.7409 38.8708 41.5152 38.7746C41.2897 38.6782 41.0962 38.5499 40.9351 38.3842C40.7685 38.2185 40.6396 38.0206 40.5483 37.7961C40.4569 37.5715 40.4139 37.3309 40.4139 37.0742C40.4139 36.8177 40.4569 36.5769 40.5483 36.3525C40.6396 36.1278 40.7685 35.9355 40.9351 35.7698C41.0962 35.6039 41.2897 35.4702 41.5152 35.374C41.7409 35.2779 41.988 35.2297 42.2566 35.2297ZM42.2566 38.3788C42.4339 38.3788 42.6004 38.3468 42.7562 38.2827C42.9067 38.2185 43.041 38.1221 43.1538 38.0046C43.2611 37.8869 43.3471 37.7533 43.4116 37.5928C43.476 37.4325 43.5082 37.2614 43.5082 37.0742C43.5082 36.8924 43.476 36.7213 43.4116 36.561C43.3471 36.4007 43.2611 36.2617 43.1538 36.144C43.041 36.0263 42.9067 35.9355 42.7562 35.8713C42.6004 35.807 42.4339 35.7698 42.2566 35.7698C42.0739 35.7698 41.9074 35.807 41.7569 35.8713C41.6013 35.9355 41.4668 36.0263 41.3595 36.144C41.2467 36.2617 41.1606 36.4007 41.0962 36.561C41.0318 36.7213 41.005 36.8924 41.005 37.0742C41.005 37.2614 41.0318 37.4325 41.0962 37.5928C41.1606 37.7533 41.2467 37.8869 41.3595 38.0046C41.4668 38.1221 41.6013 38.2185 41.7569 38.2827C41.9074 38.3468 42.0739 38.3788 42.2566 38.3788Z" fill="#717171"></path> <path d="M48.054 38.8496V37.3418H46.1414V38.8496H45.5505V35.2993H46.1414V36.8019H48.054V35.2993H48.6449V38.8496H48.054Z" fill="#717171"></path> </svg> 